<svg xmlns="http://www.w3.org/2000/svg" width="82" height="12" viewBox="0 0 82 12"><g><g><path fill="#464646" d="M6.39-.002L8.495 3.77l4.283.813-2.981 3.142.541 4.274-3.948-1.829-3.949 1.829.541-4.274L.001 4.582l4.283-.813L6.39 0"/></g><g><path fill="#464646" d="M23.428-.002l2.106 3.771 4.283.813-2.981 3.142.541 4.274-3.949-1.829-3.948 1.829.541-4.274-2.981-3.142 4.283-.813L23.428 0"/></g><g><path fill="#464646" d="M41.532-.002l2.106 3.771 4.283.813-2.981 3.142.54 4.274-3.948-1.829-3.948 1.829.541-4.274-2.981-3.142 4.282-.813L41.532 0"/></g><g><path fill="#999" d="M58.571-.002l2.106 3.771 4.283.813-2.981 3.142.54 4.274-3.948-1.829-3.948 1.829.54-4.274-2.98-3.142 4.282-.813L58.571 0"/></g><g><path fill="#999" d="M75.61-.002l2.106 3.771 4.283.813-2.981 3.142.54 4.274-3.948-1.829-3.948 1.829.54-4.274-2.98-3.142 4.282-.813L75.61 0"/></g></g></svg>