<svg xmlns="http://www.w3.org/2000/svg" width="26" height="20" viewBox="0 0 26 20"><g><g><path fill="#fff" d="M26 1.666v16.665c0 .92-.77 1.668-1.715 1.668H1.715C.77 19.999 0 19.25 0 18.33V1.666C0 .747.77 0 1.715 0h22.57C25.23-.001 26 .747 26 1.666zm-24.53 0v12.492l4.452-3.293c.676-.5 1.728-.545 2.446-.104l4.194 2.567c.155.094.428.058.55-.074l5.101-5.48a1.585 1.585 0 0 1 1.214-.512c.453.015.88.234 1.171.598l3.932 4.905V1.666a.245.245 0 0 0-.245-.238H1.715a.245.245 0 0 0-.245.238zm23.06 16.665V15.09l-5.091-6.35c-.028-.036-.053-.05-.066-.05-.017.001-.039.011-.07.044l-5.1 5.48c-.601.646-1.666.789-2.424.324L7.585 11.97c-.197-.121-.587-.104-.773.033L1.47 15.955v2.376c0 .13.112.238.245.238h22.57a.245.245 0 0 0 .245-.238zM8.26 7.143c0-1.395 1.169-2.53 2.605-2.53 1.435 0 2.603 1.134 2.603 2.53S12.3 9.674 10.865 9.674c-1.436 0-2.604-1.135-2.604-2.53zm1.47 0c0 .608.51 1.102 1.135 1.102s1.133-.494 1.133-1.102c0-.608-.508-1.102-1.133-1.102-.626 0-1.134.495-1.134 1.102z"/></g></g></svg>